HIERARCHY
ROOT Hips
{
	OFFSET 0.000000 0.000000 0.000000
	CHANNELS 6 Xposition Yposition Zposition Zrotation Yrotation Xrotation 
	JOINT LeftUpLeg_virtual
	{
		OFFSET 0.000000 0.000000 0.000000
		CHANNELS 3 Zrotation Yrotation Xrotation
		JOINT LeftUpLeg
		{
			OFFSET 8.479694 -4.795517 -0.379053
			CHANNELS 3 Zrotation Yrotation Xrotation
			JOINT LeftLeg
			{
				OFFSET 0.485052 -32.551468 0.112863
				CHANNELS 3 Zrotation Yrotation Xrotation
				JOINT LeftFoot
				{
					OFFSET 0.438033 -32.635670 -3.012641
					CHANNELS 3 Zrotation Yrotation Xrotation
					JOINT LeftToeBase
					{
						OFFSET 0.970169 -13.225353 11.864223
						CHANNELS 3 Zrotation Yrotation Xrotation
						End Site
						{
							OFFSET 0.000000 0.000000 0.000000
						}
					}
				}
			}
		}
	}
	JOINT RightUpLeg_virtual
	{
		OFFSET 0.000000 0.000000 0.000000
		CHANNELS 3 Zrotation Yrotation Xrotation
		JOINT RightUpLeg
		{
			OFFSET -8.479694 -4.795517 -0.379053
			CHANNELS 3 Zrotation Yrotation Xrotation
			JOINT RightLeg
			{
				OFFSET -0.484100 -32.551483 0.112903
				CHANNELS 3 Zrotation Yrotation Xrotation
				JOINT RightFoot
				{
					OFFSET -0.438985 -32.635651 -3.012681
					CHANNELS 3 Zrotation Yrotation Xrotation
					JOINT RightToeBase
					{
						OFFSET -0.970169 -13.225354 11.864223
						CHANNELS 3 Zrotation Yrotation Xrotation
						End Site
						{
							OFFSET 0.000000 0.000000 0.000000
						}
					}
				}
			}
		}
	}
	JOINT Spine_virtual
	{
		OFFSET 0.000000 0.000000 0.000000
		CHANNELS 3 Zrotation Yrotation Xrotation
		JOINT Spine
		{
			OFFSET 0.000000 7.722015 1.166203
			CHANNELS 3 Zrotation Yrotation Xrotation
			JOINT Spine1
			{
				OFFSET 0.000000 12.024086 0.248766
				CHANNELS 3 Zrotation Yrotation Xrotation
				JOINT Spine2
				{
					OFFSET -0.000000 11.503036 -0.491240
					CHANNELS 3 Zrotation Yrotation Xrotation
					JOINT Neck_virtual
					{
						OFFSET 0.000000 0.000000 0.000000
						CHANNELS 3 Zrotation Yrotation Xrotation
						JOINT Neck
						{
							OFFSET 0.000000 18.430687 -3.123054
							CHANNELS 3 Zrotation Yrotation Xrotation
							JOINT Head
							{
								OFFSET -0.000000 9.051071 1.034021
								CHANNELS 3 Zrotation Yrotation Xrotation
								End Site
								{
									OFFSET 0.000000 0.000000 0.000000
								}
							}
						}
					}
					JOINT LeftShoulder_virtual
					{
						OFFSET 0.000000 0.000000 0.000000
						CHANNELS 3 Zrotation Yrotation Xrotation
						JOINT LeftShoulder
						{
							OFFSET 6.197824 13.665230 -4.064723
							CHANNELS 3 Zrotation Yrotation Xrotation
							JOINT LeftArm
							{
								OFFSET 7.778132 -0.187073 -1.709282
								CHANNELS 3 Zrotation Yrotation Xrotation
								JOINT LeftForeArm
								{
									OFFSET 21.954697 0.000000 -2.041093
									CHANNELS 3 Zrotation Yrotation Xrotation
									JOINT LeftHand
									{
										OFFSET 22.992908 0.000000 -0.870901
										CHANNELS 3 Zrotation Yrotation Xrotation
										End Site
										{
											OFFSET 0.000000 0.000000 0.000000
										}
									}
								}
							}
						}
					}
					JOINT RightShoulder_virtual
					{
						OFFSET 0.000000 0.000000 0.000000
						CHANNELS 3 Zrotation Yrotation Xrotation
						JOINT RightShoulder
						{
							OFFSET -6.197824 13.665230 -4.064723
							CHANNELS 3 Zrotation Yrotation Xrotation
							JOINT RightArm
							{
								OFFSET -7.778132 -0.187073 -1.709282
								CHANNELS 3 Zrotation Yrotation Xrotation
								JOINT RightForeArm
								{
									OFFSET -21.954697 0.000000 -2.041093
									CHANNELS 3 Zrotation Yrotation Xrotation
									JOINT RightHand
									{
										OFFSET -22.992908 0.000000 -0.870901
										CHANNELS 3 Zrotation Yrotation Xrotation
										End Site
										{
											OFFSET 0.000000 0.000000 0.000000
										}
									}
								}
							}
						}
					}
				}
			}
		}
	}
}
MOTION
Frames: 7
Frame Time: 0.033333
21.514441 77.549591 -18.709419 -179.764404 -0.205389 179.864207 -3.945611 1.457809 9.683276 -2.035250 0.311707 -27.773861 7.418479 2.859779 49.095844 -0.734136 -15.770492 -12.605339 0.000000 0.000000 0.000000 -3.305305 0.603359 8.848941 10.599948 7.462674 -16.890918 -0.407265 2.395303 35.129671 4.143845 2.640129 -20.769758 0.000000 0.000000 0.000000 -0.387380 4.114242 -7.782377 1.699548 -1.483172 -5.713315 0.335705 -2.374556 9.859428 -0.058943 -0.010065 -0.043350 -0.099153 -0.845571 11.049563 -1.778180 -0.538646 6.293884 0.000000 0.000000 0.000000 1.495580 -0.410497 8.122114 9.776578 -6.269415 2.052925 -66.261728 -26.272799 3.811284 124.019747 -86.664282 -105.225095 0.000000 0.000000 0.000000 -2.801265 1.430970 7.457573 16.615122 12.425471 4.688752 44.402985 -29.654711 29.941114 -78.793759 85.396271 -80.288102 0.000000 0.000000 0.000000 
21.166931 77.567764 -18.594238 -179.720350 0.313668 179.779390 -4.196537 1.547096 9.647157 -2.109533 0.357561 -28.353529 7.658490 3.055769 49.964190 -0.591379 -15.251423 -11.904090 0.000000 0.000000 0.000000 -3.424973 0.880848 8.718564 10.572632 7.631434 -16.603505 -0.917481 2.319517 34.812614 4.532084 3.263327 -20.772243 0.000000 0.000000 0.000000 -0.484989 4.380592 -7.827144 1.915037 -1.688724 -5.793351 0.532707 -2.572757 9.822637 -0.069815 0.008679 -0.006951 0.162387 -0.863201 10.959028 -1.919651 -0.432368 6.162581 0.000000 0.000000 0.000000 1.769788 -0.541708 8.036791 9.626894 -5.904871 2.153008 -63.832380 -25.046879 1.910517 131.831694 -86.801937 -112.889763 0.000000 0.000000 0.000000 -2.533632 1.334799 7.408618 15.652340 11.596216 4.238742 44.721688 -29.452336 27.430292 -70.225000 85.223774 -71.976165 0.000000 0.000000 0.000000 
20.787840 77.628365 -18.367085 -179.657184 0.745598 179.680598 -4.421012 1.393621 9.391814 -2.122625 0.376830 -29.377047 7.609253 3.097929 51.307999 -0.802557 -14.950109 -9.679631 0.000000 0.000000 0.000000 -3.051731 1.095123 8.450096 9.846145 7.796237 -16.238790 -0.927786 2.184603 34.410329 4.809762 3.601837 -20.899452 0.000000 0.000000 0.000000 -0.475699 4.255879 -7.965818 2.206781 -1.640120 -5.694866 0.732584 -2.528812 9.787302 -0.047393 -0.082747 -0.010018 0.322502 -0.891458 10.877738 -2.189515 -0.282771 5.863605 0.000000 0.000000 0.000000 1.976123 -0.632253 8.047028 9.558419 -5.591160 2.266962 -61.475159 -23.969734 0.277641 141.109290 -87.061020 -122.018953 0.000000 0.000000 0.000000 -2.354035 1.296261 7.289670 14.487617 10.733293 3.788450 45.460838 -29.388665 24.633564 -62.703035 85.038485 -64.863431 0.000000 0.000000 0.000000 
20.380749 77.703377 -18.021080 -179.560633 1.226164 179.810085 -4.465784 1.557223 8.844461 -1.843464 0.181713 -31.107957 7.802655 2.957182 53.135890 -0.628038 -14.195183 -7.499187 0.000000 0.000000 0.000000 -2.966906 1.358575 7.978793 9.471012 8.169177 -15.879556 -0.926196 2.395162 33.978145 4.897071 3.738875 -20.800600 0.000000 0.000000 0.000000 -0.354573 4.191643 -8.236956 2.569641 -1.630651 -5.546593 0.871720 -2.550289 9.668577 -0.019910 -0.071178 -0.011183 0.373175 -1.055241 10.877598 -2.603970 -0.023650 5.394861 0.000000 0.000000 0.000000 1.997637 -0.573037 8.078189 9.486939 -5.326529 2.518664 -59.294511 -22.952875 -0.945268 149.030384 -87.226529 -129.754360 0.000000 0.000000 0.000000 -2.280976 1.294924 7.344953 13.229334 9.939116 3.334122 46.350873 -28.989987 21.911517 -59.042177 84.945533 -61.716271 0.000000 0.000000 0.000000 
19.996881 77.767418 -17.595417 -179.510321 1.273333 179.913029 -4.338849 1.110457 8.105150 -1.558929 0.048263 -33.313370 7.693680 2.659233 54.829446 -0.671711 -13.141182 -5.815724 0.000000 0.000000 0.000000 -2.812380 1.677980 7.537782 9.074818 8.271173 -15.551282 -0.853908 2.539506 33.378270 4.807589 3.717239 -20.723013 0.000000 0.000000 0.000000 -0.189056 4.096666 -8.461459 2.898841 -1.596425 -5.297070 0.891216 -2.580018 9.613664 -0.034469 -0.106002 -0.008376 0.403646 -0.889961 10.870232 -2.933231 0.005256 4.746391 0.000000 0.000000 0.000000 2.035915 -0.560724 8.158207 9.461672 -5.159581 2.735192 -57.295578 -21.966298 -1.918962 159.854690 -87.452164 -140.379444 0.000000 0.000000 0.000000 -2.221166 1.267125 7.380258 12.039825 9.040309 2.940621 47.473028 -28.327921 19.321159 -60.941079 85.188633 -64.219597 0.000000 0.000000 0.000000 
19.612154 77.801521 -17.110622 -179.533435 1.266891 179.744829 -4.147318 1.092094 7.348595 -1.213791 -0.376205 -35.730417 7.588858 2.376036 55.094150 -0.455626 -12.319028 -5.176984 0.000000 0.000000 0.000000 -3.048354 1.543022 7.168128 8.963423 9.692911 -15.394440 -0.928550 2.408018 33.456828 4.495329 3.480110 -20.765944 0.000000 0.000000 0.000000 0.024083 4.107437 -8.419250 3.206714 -1.420861 -4.842877 0.886589 -2.525490 9.604261 -0.059077 -0.058108 -0.005845 0.459699 -0.782364 10.900227 -3.301105 0.000343 4.042566 0.000000 0.000000 0.000000 2.073401 -0.713213 8.184462 9.604195 -4.941224 2.967147 -55.731140 -20.901815 -2.650204 173.159625 -87.528519 -153.468258 0.000000 0.000000 0.000000 -2.168819 1.307191 7.324056 10.985698 8.080664 2.588545 48.730982 -27.346747 16.427358 -71.815655 85.788153 -75.769488 0.000000 0.000000 0.000000 
19.254669 77.819496 -16.632805 -179.413223 1.101892 179.528449 -3.869887 1.371281 6.772871 -0.689484 -1.399834 -38.046794 7.685217 2.313301 52.887715 0.210204 -11.086487 -5.985234 0.000000 0.000000 0.000000 -2.801664 1.074038 6.949595 8.442489 10.900402 -15.436368 -0.896053 2.311881 33.584884 4.255502 3.452415 -20.892522 0.000000 0.000000 0.000000 0.378839 3.945923 -8.241615 3.519672 -1.275255 -4.352255 0.882189 -2.532453 9.640013 -0.037221 -0.053784 -0.041472 0.264262 -1.036796 11.024193 -3.797625 0.124766 3.291885 0.000000 0.000000 0.000000 1.911988 -0.538082 8.356136 9.633810 -4.845503 3.269913 -54.156918 -19.804613 -3.227542 -176.699685 -87.398643 -163.408656 0.000000 0.000000 0.000000 -2.339071 1.333763 7.462880 10.127182 7.232088 2.180665 49.983502 -25.913751 13.665956 -93.502476 86.138671 -98.135427 0.000000 0.000000 0.000000 
